<?xml version="1.0" encoding="utf-8"?>
<!-- Generator: Adobe Illustrator 16.0.0, SVG Export Plug-In . SVG Version: 6.00 Build 0)  -->
<!DOCTYPE svg PUBLIC "-//W3C//DTD SVG 1.1//EN" "http://www.w3.org/Graphics/SVG/1.1/DTD/svg11.dtd">
<svg version="1.1" id="Capa_1" xmlns="http://www.w3.org/2000/svg" xmlns:xlink="http://www.w3.org/1999/xlink" x="0px" y="0px"
	 width="172.75px" height="172.958px" viewBox="0 0 172.75 172.958" enable-background="new 0 0 172.75 172.958"
	 xml:space="preserve">
<g>
	<path fill="#FFFFFF" stroke="#00427A" stroke-width="4" stroke-miterlimit="10" d="M171.171,150.927
		c0,11.089-8.988,20.079-20.08,20.079H22.251c-11.09,0-20.08-8.99-20.08-20.079V22.086c0-11.089,8.99-20.08,20.08-20.08h128.84
		c11.092,0,20.08,8.991,20.08,20.08V150.927z"/>
	<path fill="#FFFFFF" stroke="#00427A" stroke-width="4" stroke-miterlimit="10" d="M137.142,151.957
		c0,6.008,4.871,10.879,10.877,10.879l0,0c6.008,0,10.881-4.871,10.881-10.879l0,0c0-6.008-4.873-10.878-10.881-10.878l0,0
		C142.013,141.078,137.142,145.949,137.142,151.957L137.142,151.957z"/>
	<path fill="#FFFFFF" stroke="#00427A" stroke-width="4" stroke-miterlimit="10" d="M13.173,26.538
		c0,6.008,4.871,10.879,10.879,10.879l0,0c6.008,0,10.879-4.871,10.879-10.879l0,0c0-6.008-4.871-10.878-10.879-10.878l0,0
		C18.044,15.66,13.173,20.53,13.173,26.538L13.173,26.538z"/>
</g>
<g>
	<rect x="26.022" y="129.646" fill="#00427A" width="126.667" height="8"/>
	<rect x="144.98" y="35.313" fill="#00427A" width="8" height="91"/>
	<rect x="134.166" y="67.645" fill="#00427A" width="8" height="58.667"/>
	<rect x="112.537" y="56.645" fill="#00427A" width="8" height="69.668"/>
	<rect x="101.723" y="44.645" fill="#00427A" width="8" height="81.668"/>
	<rect x="123.352" y="67.645" fill="#00427A" width="8" height="58.667"/>
	<rect x="47.651" y="35.313" fill="#00427A" width="8" height="91"/>
	<rect x="58.466" y="67.645" fill="#00427A" width="8" height="58.667"/>
	<rect x="80.095" y="56.645" fill="#00427A" width="8" height="69.668"/>
	<rect x="90.909" y="44.645" fill="#00427A" width="8" height="81.668"/>
	<rect x="69.28" y="67.645" fill="#00427A" width="8" height="58.667"/>
	<rect x="26.022" y="67.645" fill="#00427A" width="8" height="58.667"/>
	<rect x="36.837" y="67.645" fill="#00427A" width="8" height="58.667"/>
</g>
</svg>
