<?xml version="1.0" encoding="utf-8"?>
<!-- Generator: Adobe Illustrator 16.0.0, SVG Export Plug-In . SVG Version: 6.00 Build 0)  -->
<!DOCTYPE svg PUBLIC "-//W3C//DTD SVG 1.1//EN" "http://www.w3.org/Graphics/SVG/1.1/DTD/svg11.dtd">
<svg version="1.1" id="Capa_1" xmlns="http://www.w3.org/2000/svg" xmlns:xlink="http://www.w3.org/1999/xlink" x="0px" y="0px"
	 width="172.749px" height="172.958px" viewBox="0 0 172.749 172.958" enable-background="new 0 0 172.749 172.958"
	 xml:space="preserve">
<g>
	<path fill="#FFFFFF" stroke="#00427A" stroke-width="4" stroke-miterlimit="10" d="M171.171,150.927
		c0,11.089-8.988,20.079-20.08,20.079H22.251c-11.09,0-20.08-8.99-20.08-20.079V22.086c0-11.089,8.99-20.081,20.08-20.081h128.84
		c11.092,0,20.08,8.991,20.08,20.081V150.927z"/>
	<path fill="#FFFFFF" stroke="#00427A" stroke-width="4" stroke-miterlimit="10" d="M137.142,151.957
		c0,6.008,4.871,10.879,10.877,10.879l0,0c6.008,0,10.881-4.871,10.881-10.879l0,0c0-6.008-4.873-10.878-10.881-10.878l0,0
		C142.013,141.078,137.142,145.949,137.142,151.957L137.142,151.957z"/>
	<path fill="#FFFFFF" stroke="#00427A" stroke-width="4" stroke-miterlimit="10" d="M13.173,26.538
		c0,6.009,4.871,10.879,10.879,10.879l0,0c6.008,0,10.879-4.87,10.879-10.879l0,0c0-6.008-4.871-10.878-10.879-10.878l0,0
		C18.044,15.66,13.173,20.53,13.173,26.538L13.173,26.538z"/>
</g>
<path fill="#FFAB00" d="M98.582,86.562v-8.637c0-6.349-5.167-11.515-11.516-11.515c-6.35,0-11.515,5.165-11.515,11.514v8.637
	c-2.38,0-4.318,1.937-4.318,4.317v17.272c0,2.381,1.938,4.318,4.318,4.318l23.03,0c2.38,0,4.317-1.937,4.317-4.318V90.879
	C102.899,88.499,100.962,86.562,98.582,86.562z M87.066,103.834c-1.588,0-2.878-1.292-2.878-2.879c0-1.063,0.582-1.98,1.439-2.48
	v-3.278c0-0.795,0.645-1.438,1.438-1.438c0.796,0,1.44,0.643,1.44,1.438v3.278c0.857,0.5,1.438,1.417,1.438,2.48
	C89.945,102.542,88.655,103.834,87.066,103.834z M95.702,86.562l-17.271,0v-8.637c0-4.763,3.873-8.636,8.636-8.635
	c4.762,0,8.636,3.873,8.636,8.636V86.562z"/>
<g id="_x33_50._Repeat">
	<g>
		<g>
			<g>
				<path fill="#00A651" d="M38.08,90.373c0,14.64,6.428,27.775,16.612,36.75c7.879,7.341,12.777-2.456,7.825-6.211
					c-8.93-7.182-14.641-18.191-14.641-30.538c0-18.253,12.5-33.547,29.392-37.909V42.367C54.909,46.907,38.08,66.675,38.08,90.373z
					"/>
				<path fill="#00A651" d="M97.556,46.327L81.46,36.588c-2.312-1.4-4.183-0.344-4.169,2.363l0.085,19.596
					c0.008,2.704,1.897,3.773,4.223,2.379l15.942-9.546C99.863,49.988,99.869,47.727,97.556,46.327z"/>
			</g>
			<g>
				<path fill="#00427A" d="M92.672,119.868l-16.092,9.735c-2.314,1.405-2.309,3.663,0.009,5.057l15.946,9.546
					c2.32,1.391,4.214,0.322,4.226-2.382l0.084-19.595C96.854,119.524,94.982,118.469,92.672,119.868z"/>
				<path fill="#00427A" d="M119.026,53.265c-5.018-4.531-12.363,2.816-7.55,6.458c9.011,7.178,14.78,18.239,14.78,30.648
					c0,18.256-12.5,33.549-29.395,37.905v10.099c22.362-4.542,39.191-24.305,39.191-48.004
					C136.054,75.531,129.452,62.247,119.026,53.265z"/>
			</g>
		</g>
	</g>
</g>
</svg>
