<?xml version="1.0" encoding="utf-8"?>
<!-- Generator: Adobe Illustrator 16.0.0, SVG Export Plug-In . SVG Version: 6.00 Build 0)  -->
<!DOCTYPE svg PUBLIC "-//W3C//DTD SVG 1.1//EN" "http://www.w3.org/Graphics/SVG/1.1/DTD/svg11.dtd">
<svg version="1.1" id="Capa_1" xmlns="http://www.w3.org/2000/svg" xmlns:xlink="http://www.w3.org/1999/xlink" x="0px" y="0px"
	 width="172.749px" height="172.958px" viewBox="0 0 172.749 172.958" enable-background="new 0 0 172.749 172.958"
	 xml:space="preserve">
<g>
	<rect x="4.013" y="-35.922" fill="none" width="162.5" height="55.5"/>
</g>
<g>
	<g>
		<g>
			<path d="M171.171,150.927c0,11.089-8.988,20.079-20.08,20.079H22.251c-11.09,0-20.08-8.99-20.08-20.079V22.086
				c0-11.089,8.99-20.081,20.08-20.081h128.84c11.092,0,20.08,8.991,20.08,20.081V150.927z"/>
			<path fill="none" stroke="#000000" stroke-width="4" stroke-miterlimit="10" d="M171.171,150.927
				c0,11.089-8.988,20.079-20.08,20.079H22.251c-11.09,0-20.08-8.99-20.08-20.079V22.086c0-11.089,8.99-20.081,20.08-20.081h128.84
				c11.092,0,20.08,8.991,20.08,20.081V150.927z"/>
		</g>
	</g>
</g>
<g>
	<path fill="#FFFFFF" d="M30.737,38.596c0,4.587,3.721,8.306,8.309,8.306l0,0c4.586,0,8.307-3.719,8.307-8.306l0,0
		c0-4.587-3.721-8.307-8.307-8.307l0,0C34.458,30.289,30.737,34.009,30.737,38.596L30.737,38.596z"/>
	<path fill="#FFFFFF" d="M135.644,87.761c0,7.399-0.951,14.089-2.852,20.068c-1.902,5.982-4.479,10.908-7.729,14.78
		c-3.318,4.01-7.086,7.002-11.305,8.972c-4.219,1.971-8.713,2.956-13.484,2.956c-7.605,0-14.018-2.126-19.238-6.379
		s-9.18-11.46-11.877-21.625c-0.234-0.896-0.455-1.892-0.684-2.836l-12.445,3.15l15.041-25.224l0.053-0.023l25.223,15.046
		l-9.377,2.373c1.395,4.949,3.086,8.715,5.111,11.145c2.422,2.974,6.016,4.46,10.787,4.46c5.393,0,9.457-2.453,12.188-7.364
		c2.73-4.909,4.098-10.925,4.098-18.047c0-6.846-1.262-13.829-3.787-20.951c-2.523-7.121-5.617-13.172-9.281-18.151v-1.037h20.846
		c2.42,4.703,4.479,10.597,6.172,17.684C134.796,73.847,135.644,80.848,135.644,87.761z"/>
	<path fill="#FFFFFF" d="M33.239,88.548c0-7.4,0.949-14.089,2.852-20.07c1.9-5.981,4.477-10.906,7.727-14.78
		c3.32-4.01,7.088-7,11.305-8.971c4.219-1.972,8.713-2.956,13.484-2.956c7.605,0,14.02,2.126,19.24,6.378
		c5.221,4.253,9.18,11.461,11.877,21.626c0.234,0.894,0.455,1.892,0.684,2.835l12.445-3.15L97.81,94.685l-0.051,0.024L72.534,79.663
		l9.379-2.373c-1.396-4.95-3.086-8.714-5.113-11.145c-2.42-2.974-6.014-4.46-10.785-4.46c-5.395,0-9.457,2.452-12.188,7.363
		c-2.73,4.91-4.098,10.926-4.098,18.047c0,6.846,1.262,13.829,3.785,20.951c2.523,7.121,5.619,13.173,9.283,18.151v1.037H41.952
		c-2.422-4.704-4.479-10.596-6.174-17.684C34.085,102.462,33.239,95.461,33.239,88.548z"/>
	<path fill="#FFFFFF" d="M125.397,134.362c0,4.588,3.719,8.307,8.307,8.307l0,0c4.588,0,8.307-3.719,8.307-8.307l0,0
		c0-4.587-3.719-8.307-8.307-8.307l0,0C129.116,126.056,125.397,129.775,125.397,134.362L125.397,134.362z"/>
	<path fill="#FFFFFF" d="M30.737,38.596c0,4.587,3.721,8.306,8.309,8.306l0,0c4.586,0,8.307-3.719,8.307-8.306l0,0
		c0-4.587-3.721-8.307-8.307-8.307l0,0C34.458,30.289,30.737,34.009,30.737,38.596L30.737,38.596z"/>
</g>
<g>
	<linearGradient id="SVGID_2_" gradientUnits="userSpaceOnUse" x1="34.8916" y1="31.4014" x2="43.1997" y2="45.7914">
		<stop  offset="0.2013" style="stop-color:#75521F"/>
		<stop  offset="0.4226" style="stop-color:#75521F;stop-opacity:0.4"/>
		<stop  offset="0.5839" style="stop-color:#75521F;stop-opacity:0.4"/>
		<stop  offset="0.7774" style="stop-color:#75521F"/>
	</linearGradient>
	<linearGradient id="SVGID_3_" gradientUnits="userSpaceOnUse" x1="29.7373" y1="38.5957" x2="48.3525" y2="38.5957">
		<stop  offset="0" style="stop-color:#000000"/>
		<stop  offset="0.5036" style="stop-color:#FFFFFF"/>
		<stop  offset="1" style="stop-color:#000000"/>
	</linearGradient>
	<path fill="url(#SVGID_2_)" stroke="url(#SVGID_3_)" stroke-width="2" stroke-miterlimit="10" d="M30.737,38.596
		c0,4.587,3.721,8.306,8.309,8.306l0,0c4.586,0,8.307-3.719,8.307-8.306l0,0c0-4.587-3.721-8.307-8.307-8.307l0,0
		C34.458,30.289,30.737,34.009,30.737,38.596L30.737,38.596z"/>
	<linearGradient id="SVGID_4_" gradientUnits="userSpaceOnUse" x1="82.624" y1="62.6191" x2="120.3247" y2="127.9186">
		<stop  offset="0.2013" style="stop-color:#00427A"/>
		<stop  offset="0.4226" style="stop-color:#00427A;stop-opacity:0.4"/>
		<stop  offset="0.5839" style="stop-color:#00427A;stop-opacity:0.4"/>
		<stop  offset="0.7774" style="stop-color:#00427A"/>
	</linearGradient>
	<linearGradient id="SVGID_5_" gradientUnits="userSpaceOnUse" x1="53.9346" y1="91.8052" x2="136.6436" y2="91.8052">
		<stop  offset="0" style="stop-color:#000000"/>
		<stop  offset="0.5036" style="stop-color:#FFFFFF"/>
		<stop  offset="1" style="stop-color:#000000"/>
	</linearGradient>
	<path fill="url(#SVGID_4_)" stroke="url(#SVGID_5_)" stroke-width="2" stroke-miterlimit="10" d="M135.644,87.761
		c0,7.399-0.951,14.089-2.852,20.068c-1.902,5.982-4.479,10.908-7.729,14.78c-3.318,4.01-7.086,7.002-11.305,8.972
		c-4.219,1.971-8.713,2.956-13.484,2.956c-7.605,0-14.018-2.126-19.238-6.379s-9.18-11.46-11.877-21.625
		c-0.234-0.896-0.455-1.892-0.684-2.836l-12.445,3.15l15.041-25.224l0.053-0.023l25.223,15.046l-9.377,2.373
		c1.395,4.949,3.086,8.715,5.111,11.145c2.422,2.974,6.016,4.46,10.787,4.46c5.393,0,9.457-2.453,12.188-7.364
		c2.73-4.909,4.098-10.925,4.098-18.047c0-6.846-1.262-13.829-3.787-20.951c-2.523-7.121-5.617-13.172-9.281-18.151v-1.037h20.846
		c2.42,4.703,4.479,10.597,6.172,17.684C134.796,73.847,135.644,80.848,135.644,87.761z"/>
	<linearGradient id="SVGID_6_" gradientUnits="userSpaceOnUse" x1="48.5596" y1="48.3901" x2="86.2603" y2="113.6896">
		<stop  offset="0.2013" style="stop-color:#00427A"/>
		<stop  offset="0.4226" style="stop-color:#00427A;stop-opacity:0.4"/>
		<stop  offset="0.5839" style="stop-color:#00427A;stop-opacity:0.4"/>
		<stop  offset="0.7774" style="stop-color:#00427A"/>
	</linearGradient>
	<linearGradient id="SVGID_7_" gradientUnits="userSpaceOnUse" x1="32.2393" y1="84.5034" x2="114.9482" y2="84.5034">
		<stop  offset="0" style="stop-color:#000000"/>
		<stop  offset="0.5036" style="stop-color:#FFFFFF"/>
		<stop  offset="1" style="stop-color:#000000"/>
	</linearGradient>
	<path fill="url(#SVGID_6_)" stroke="url(#SVGID_7_)" stroke-width="2" stroke-miterlimit="10" d="M33.239,88.548
		c0-7.4,0.949-14.089,2.852-20.07c1.9-5.981,4.477-10.906,7.727-14.78c3.32-4.01,7.088-7,11.305-8.971
		c4.219-1.972,8.713-2.956,13.484-2.956c7.605,0,14.02,2.126,19.24,6.378c5.221,4.253,9.18,11.461,11.877,21.626
		c0.234,0.894,0.455,1.892,0.684,2.835l12.445-3.15L97.81,94.685l-0.051,0.024L72.534,79.663l9.379-2.373
		c-1.396-4.95-3.086-8.714-5.113-11.145c-2.42-2.974-6.014-4.46-10.785-4.46c-5.395,0-9.457,2.452-12.188,7.363
		c-2.73,4.91-4.098,10.926-4.098,18.047c0,6.846,1.262,13.829,3.785,20.951c2.523,7.121,5.619,13.173,9.283,18.151v1.037H41.952
		c-2.422-4.704-4.479-10.596-6.174-17.684C34.085,102.462,33.239,95.461,33.239,88.548z"/>
	<radialGradient id="SVGID_8_" cx="133.7041" cy="134.3623" r="9.3066" gradientUnits="userSpaceOnUse">
		<stop  offset="0" style="stop-color:#000000"/>
		<stop  offset="0.5036" style="stop-color:#FFFFFF"/>
		<stop  offset="1" style="stop-color:#000000"/>
	</radialGradient>
	<path fill="#00427A" stroke="url(#SVGID_8_)" stroke-width="2" stroke-miterlimit="10" d="M125.397,134.362
		c0,4.588,3.719,8.307,8.307,8.307l0,0c4.588,0,8.307-3.719,8.307-8.307l0,0c0-4.587-3.719-8.307-8.307-8.307l0,0
		C129.116,126.056,125.397,129.775,125.397,134.362L125.397,134.362z"/>
	<radialGradient id="SVGID_9_" cx="39.0449" cy="38.5957" r="9.3071" gradientUnits="userSpaceOnUse">
		<stop  offset="0" style="stop-color:#000000"/>
		<stop  offset="0.5036" style="stop-color:#FFFFFF"/>
		<stop  offset="1" style="stop-color:#000000"/>
	</radialGradient>
	<path fill="#00427A" stroke="url(#SVGID_9_)" stroke-width="2" stroke-miterlimit="10" d="M30.737,38.596
		c0,4.587,3.721,8.306,8.309,8.306l0,0c4.586,0,8.307-3.719,8.307-8.306l0,0c0-4.587-3.721-8.307-8.307-8.307l0,0
		C34.458,30.289,30.737,34.009,30.737,38.596L30.737,38.596z"/>
</g>
</svg>
