<?xml version="1.0" encoding="utf-8"?>
<!-- Generator: Adobe Illustrator 16.0.0, SVG Export Plug-In . SVG Version: 6.00 Build 0)  -->
<!DOCTYPE svg PUBLIC "-//W3C//DTD SVG 1.1//EN" "http://www.w3.org/Graphics/SVG/1.1/DTD/svg11.dtd">
<svg version="1.1" id="Capa_1" xmlns="http://www.w3.org/2000/svg" xmlns:xlink="http://www.w3.org/1999/xlink" x="0px" y="0px"
	 width="172.749px" height="172.958px" viewBox="0 0 172.749 172.958" enable-background="new 0 0 172.749 172.958"
	 xml:space="preserve">
<g>
	<path fill="#FFFFFF" stroke="#00427A" stroke-width="4" stroke-miterlimit="10" d="M171.171,150.927
		c0,11.089-8.988,20.079-20.08,20.079H22.251c-11.09,0-20.08-8.99-20.08-20.079V22.086c0-11.089,8.99-20.08,20.08-20.08h128.84
		c11.092,0,20.08,8.991,20.08,20.08V150.927z"/>
	<path fill="#FFFFFF" stroke="#00427A" stroke-width="4" stroke-miterlimit="10" d="M137.142,151.957
		c0,6.008,4.871,10.879,10.877,10.879l0,0c6.008,0,10.881-4.871,10.881-10.879l0,0c0-6.008-4.873-10.878-10.881-10.878l0,0
		C142.013,141.078,137.142,145.949,137.142,151.957L137.142,151.957z"/>
	<path fill="#FFFFFF" stroke="#00427A" stroke-width="4" stroke-miterlimit="10" d="M13.173,26.538
		c0,6.008,4.871,10.879,10.879,10.879l0,0c6.008,0,10.879-4.871,10.879-10.879l0,0c0-6.008-4.871-10.878-10.879-10.878l0,0
		C18.044,15.66,13.173,20.53,13.173,26.538L13.173,26.538z"/>
</g>
<g>
	<g>
		<circle fill="#004077" cx="59.896" cy="44.927" r="10.322"/>
		<path fill="#004077" d="M62.466,55.848l-2.57,2.587c0,0-2.527-2.609-2.52-2.612c-0.01,0.003-20.465,6.977-16.768,31.209
			c0.207,2.065,1.746,4.12,3.777,4.12c0.135,0,0.27-0.006,0.406-0.021c2.201-0.22,3.809-2.184,3.59-4.386
			c-0.607-6.061-0.17-10.303,0.951-13.444c0,0,0,11.169,0,14.3c0,3.541,0.732,3.899,0.732,3.899l0.002,38.117
			c0,2.614,2.121,4.734,4.736,4.734c2.617,0,4.736-2.12,4.736-4.734l-0.004-32.933c0.188,0.01,0.375,0.025,0.564,0.025
			c0.037,0,0.072-0.004,0.109-0.004l-0.002,32.912c0,2.614,2.121,4.734,4.738,4.734c2.615,0,4.734-2.12,4.734-4.734l0.002-38.137
			c0,0,0.779-1.046,0.779-3.879c0-2.424,0-4.818,0-4.818c3.395-0.653,9.078-2.479,10.305-7.51
			C82.099,69.807,69.56,57.886,62.466,55.848z M70.46,70.186c1.912,1.795,2.371,2.833,2.475,3.178
			c-0.361,0.376-1.312,0.82-2.475,1.176V70.186z M66.04,86.545H53.755c-0.598,0-1.08-0.483-1.08-1.08V67.242
			c0-0.597,0.482-1.08,1.08-1.08h2.734v-0.471c0-0.597,0.482-1.082,1.078-1.082h4.66c0.596,0,1.08,0.485,1.08,1.082v0.471h2.732
			c0.596,0,1.082,0.483,1.082,1.08v7.969c-0.953,0.229-1.799,0.34-2.236,0.371c-2.207,0.16-3.869,2.079-3.709,4.286
			c0.152,2.108,1.91,3.719,3.992,3.719c0.098,0,0.193-0.004,0.291-0.01c0.465-0.034,1.031-0.102,1.66-0.201v2.09
			C67.12,86.062,66.636,86.545,66.04,86.545z"/>
	</g>
	<g>
		<circle fill="#004077" cx="118.37" cy="45.883" r="10.798"/>
		<path fill="#004077" d="M121.005,57.281c-0.01-0.001-0.02-0.001-0.027-0.003l-2.609,2.737l-2.688-2.707
			c-3.838,1.339-18.758,10.342-20.873,34.289c-0.314,2.294,1.285,4.405,3.578,4.724c0.195,0.026,0.389,0.039,0.58,0.039
			c2.059,0,3.855-1.519,4.146-3.615c0.613-4.4,2.059-10.407,4.207-15.586v5.423l-6.553,29.07c0,0,0.723,2.373,7.42,3.619v14.254
			c0,2.576,2.088,4.662,4.662,4.662c2.576,0,4.664-2.087,4.662-4.662v-13.516c0.096,0,0.184,0.002,0.281,0.002
			c0.131,0,0.252-0.002,0.381-0.004v13.518c0,2.574,2.086,4.662,4.662,4.662c0.002,0,0.002,0,0.002,0c2.574,0,4.66-2.085,4.66-4.662
			v-14.268c6.682-1.245,7.496-3.601,7.496-3.601l-4.77-25.654c0,0,0.668-0.024,0.756-0.024c3.664,0,8.141-0.872,9.641-5.104
			C143.079,73.923,129.683,59.377,121.005,57.281z M110.202,72.241c0-0.675,0.547-1.222,1.221-1.222h3.092v-0.533
			c0-0.675,0.547-1.222,1.219-1.222h5.268c0.676,0,1.221,0.547,1.221,1.222v0.533h3.092c0.674,0,1.221,0.548,1.221,1.222v5.04
			c-0.691-0.139-1.484-0.32-2.432-0.572c-2.24-0.6-4.537,0.733-5.131,2.97c-0.598,2.237,0.732,4.535,2.971,5.131
			c1.734,0.462,3.229,0.778,4.59,0.974v7.065c0,0.673-0.547,1.222-1.221,1.222h-13.889c-0.674,0-1.221-0.549-1.221-1.222V72.241z
			 M129.421,77.506v-3.931c1.332,1.488,2.387,2.893,2.893,3.933C131.71,77.579,130.778,77.612,129.421,77.506z"/>
	</g>
</g>
</svg>
