<?xml version="1.0" encoding="utf-8"?>
<!-- Generator: Adobe Illustrator 16.0.0, SVG Export Plug-In . SVG Version: 6.00 Build 0)  -->
<!DOCTYPE svg PUBLIC "-//W3C//DTD SVG 1.1//EN" "http://www.w3.org/Graphics/SVG/1.1/DTD/svg11.dtd">
<svg version="1.1" id="Capa_1" xmlns="http://www.w3.org/2000/svg" xmlns:xlink="http://www.w3.org/1999/xlink" x="0px" y="0px"
	 width="172.749px" height="172.958px" viewBox="0 0 172.749 172.958" enable-background="new 0 0 172.749 172.958"
	 xml:space="preserve">
<g>
	<path fill="#FFFFFF" stroke="#00427A" stroke-width="4" stroke-miterlimit="10" d="M171.171,150.927
		c0,11.089-8.988,20.079-20.08,20.079H22.251c-11.09,0-20.08-8.99-20.08-20.079V22.086c0-11.089,8.99-20.081,20.08-20.081h128.84
		c11.092,0,20.08,8.991,20.08,20.081V150.927z"/>
	<path fill="#FFFFFF" stroke="#00427A" stroke-width="4" stroke-miterlimit="10" d="M137.142,151.957
		c0,6.008,4.871,10.879,10.877,10.879l0,0c6.008,0,10.881-4.871,10.881-10.879l0,0c0-6.008-4.873-10.878-10.881-10.878l0,0
		C142.013,141.078,137.142,145.949,137.142,151.957L137.142,151.957z"/>
	<path fill="#FFFFFF" stroke="#00427A" stroke-width="4" stroke-miterlimit="10" d="M13.173,26.538
		c0,6.009,4.871,10.879,10.879,10.879l0,0c6.008,0,10.879-4.87,10.879-10.879l0,0c0-6.008-4.871-10.878-10.879-10.878l0,0
		C18.044,15.66,13.173,20.53,13.173,26.538L13.173,26.538z"/>
</g>
<path fill="#00427A" d="M92.575,127.335l9.82-21.684c5.622-8.736,2.997-44.228,2.997-44.228l-1.273-26.122
	c0,0,1.104-8.232-4.009-6.729c-5.112,1.504-4.696,5.202-4.696,5.202l-1.103,35.348c11.025,21.168-0.013,0.422-0.013,0.422
	l0.013-0.422c-0.102-0.197-0.201-0.388-0.308-0.591c-11.543-22.154-19.11-6.131-19.11-6.131
	c-10.362-3.114-11.496,7.502-11.496,7.502c-3.686-1.848-5.242,6.581-5.242,6.581c-2.887,5.655-0.602,7.933-0.602,7.933l1.551,3.768
	c-8.39,25.398,5.835,42.184,5.835,42.184l0.006,0.354h27.472L92.575,127.335z"/>
<path fill="none" stroke="#FFFFFF" stroke-width="1.5" stroke-miterlimit="10" d="M59.104,88.185c0,0,11.282,13.681,17.463,3.312
	c0,0-12.465-11.149-13.17-21.594"/>
<path fill="none" stroke="#FFFFFF" stroke-width="1.5" stroke-miterlimit="10" d="M76.567,91.497c0,0,5.791,2.874,6.06-2.713
	c0,0-14.122-13.585-7.733-26.383"/>
<path fill="none" stroke="#FFFFFF" stroke-width="1.5" stroke-miterlimit="10" d="M89.515,103.42c0,0-4.811-5.659,0.379-13.964
	c0,0-9.354-12.358-3.49-21.598c0,0,3.248-4.287,6.306,1.472l4.274,8.008c0,0,4.22,7.028,2.851,11.336"/>
<path fill="none" stroke="#FFFFFF" stroke-miterlimit="10" d="M82.627,88.784c0,0,3.485,4.188,7.267,0.671"/>
<path fill="none" stroke="#FFFFFF" stroke-width="1.5" stroke-miterlimit="10" d="M84.473,90.252c0,0-17.871,15.957-4.897,36.101"/>
<rect x="61.822" y="130.724" fill="#00A651" width="34.931" height="12.113"/>
</svg>
