<?xml version="1.0" encoding="utf-8"?>
<!-- Generator: Adobe Illustrator 16.0.0, SVG Export Plug-In . SVG Version: 6.00 Build 0)  -->
<!DOCTYPE svg PUBLIC "-//W3C//DTD SVG 1.1//EN" "http://www.w3.org/Graphics/SVG/1.1/DTD/svg11.dtd">
<svg version="1.1" id="Capa_1" xmlns="http://www.w3.org/2000/svg" xmlns:xlink="http://www.w3.org/1999/xlink" x="0px" y="0px"
	 width="172.749px" height="172.958px" viewBox="0 0 172.749 172.958" enable-background="new 0 0 172.749 172.958"
	 xml:space="preserve">
<g>
	<path fill="#FFFFFF" stroke="#00427A" stroke-width="4" stroke-miterlimit="10" d="M171.171,150.927
		c0,11.089-8.988,20.079-20.08,20.079H22.251c-11.09,0-20.08-8.99-20.08-20.079V22.086c0-11.089,8.99-20.081,20.08-20.081h128.84
		c11.092,0,20.08,8.991,20.08,20.081V150.927z"/>
	<path fill="#FFFFFF" stroke="#00427A" stroke-width="4" stroke-miterlimit="10" d="M137.142,151.957
		c0,6.008,4.871,10.879,10.877,10.879l0,0c6.008,0,10.881-4.871,10.881-10.879l0,0c0-6.008-4.873-10.878-10.881-10.878l0,0
		C142.013,141.078,137.142,145.949,137.142,151.957L137.142,151.957z"/>
	<path fill="#FFFFFF" stroke="#00427A" stroke-width="4" stroke-miterlimit="10" d="M13.173,26.538
		c0,6.009,4.871,10.879,10.879,10.879l0,0c6.008,0,10.879-4.87,10.879-10.879l0,0c0-6.008-4.871-10.878-10.879-10.878l0,0
		C18.044,15.66,13.173,20.53,13.173,26.538L13.173,26.538z"/>
</g>
<path fill="#00A651" d="M61.956,93.933c2.657-1.709,4.422-4.682,4.422-8.074c0-5.301-4.299-9.597-9.598-9.597
	c-5.301,0-9.598,4.296-9.598,9.597c0,3.392,1.764,6.365,4.422,8.074c-6.26,0.559-11.184,5.832-11.184,12.234v9.961l0.025,0.157
	l0.686,0.214c6.467,2.02,12.085,2.694,16.708,2.694c9.03,0,14.265-2.576,14.589-2.739l0.641-0.326h0.068v-9.961
	C73.138,99.766,68.215,94.493,61.956,93.933z"/>
<path fill="#FFAB00" d="M127.491,93.933c2.656-1.709,4.42-4.682,4.42-8.074c0-5.301-4.297-9.597-9.597-9.597
	c-5.301,0-9.598,4.296-9.598,9.597c0,3.392,1.765,6.365,4.421,8.074c-6.26,0.559-11.184,5.832-11.184,12.234v9.961l0.025,0.157
	l0.687,0.214c6.466,2.02,12.083,2.694,16.707,2.694c9.03,0,14.265-2.576,14.59-2.739l0.641-0.326h0.067v-9.961
	C138.671,99.766,133.749,94.493,127.491,93.933z"/>
<path fill="#00427A" d="M97.925,79.527c4.806-3.09,7.996-8.468,7.996-14.604c0-9.587-7.773-17.359-17.359-17.359
	c-9.589,0-17.359,7.771-17.359,17.359c0,6.135,3.191,11.514,7.996,14.604c-11.32,1.013-20.229,10.55-20.229,22.132v18.018
	l0.046,0.285l1.242,0.386c11.694,3.654,21.856,4.875,30.22,4.875c16.334,0,25.804-4.661,26.391-4.954l1.16-0.592h0.122v-18.018
	C118.15,90.08,109.246,80.543,97.925,79.527z"/>
</svg>
