<?xml version="1.0" encoding="utf-8"?>
<!-- Generator: Adobe Illustrator 16.0.0, SVG Export Plug-In . SVG Version: 6.00 Build 0)  -->
<!DOCTYPE svg PUBLIC "-//W3C//DTD SVG 1.1//EN" "http://www.w3.org/Graphics/SVG/1.1/DTD/svg11.dtd">
<svg version="1.1" id="Capa_1" xmlns="http://www.w3.org/2000/svg" xmlns:xlink="http://www.w3.org/1999/xlink" x="0px" y="0px"
	 width="172.749px" height="172.958px" viewBox="0 0 172.749 172.958" enable-background="new 0 0 172.749 172.958"
	 xml:space="preserve">
<g>
	<path fill="#FFFFFF" stroke="#00427A" stroke-width="4" stroke-miterlimit="10" d="M171.171,150.927
		c0,11.089-8.988,20.079-20.08,20.079H22.251c-11.09,0-20.08-8.99-20.08-20.079V22.086c0-11.089,8.99-20.081,20.08-20.081h128.84
		c11.092,0,20.08,8.991,20.08,20.081V150.927z"/>
	<path fill="#FFFFFF" stroke="#00427A" stroke-width="4" stroke-miterlimit="10" d="M137.142,151.957
		c0,6.008,4.871,10.879,10.877,10.879l0,0c6.008,0,10.881-4.871,10.881-10.879l0,0c0-6.008-4.873-10.878-10.881-10.878l0,0
		C142.013,141.078,137.142,145.949,137.142,151.957L137.142,151.957z"/>
	<path fill="#FFFFFF" stroke="#00427A" stroke-width="4" stroke-miterlimit="10" d="M13.173,26.538
		c0,6.009,4.871,10.879,10.879,10.879l0,0c6.008,0,10.879-4.87,10.879-10.879l0,0c0-6.008-4.871-10.878-10.879-10.878l0,0
		C18.044,15.66,13.173,20.53,13.173,26.538L13.173,26.538z"/>
</g>
<path fill="#00427A" d="M97.472,78.564c3.723-2.394,6.194-6.56,6.194-11.312c0-7.427-6.021-13.447-13.447-13.447
	c-7.428,0-13.447,6.02-13.447,13.447c0,4.752,2.472,8.919,6.193,11.312c-8.77,0.784-15.67,8.172-15.67,17.145v13.957l0.035,0.221
	l0.963,0.298c9.059,2.831,16.932,3.776,23.41,3.776c12.652,0,19.988-3.61,20.443-3.837l0.898-0.458h0.095V95.709
	C113.14,86.739,106.242,79.351,97.472,78.564z"/>
<path fill="#00A651" stroke="#FFFFFF" stroke-miterlimit="10" d="M60.433,96.1l-9.347-16.322c-1.35-2.348-3.605-2.396-5.055-0.112
	l-9.927,15.712c-1.446,2.286-0.424,4.205,2.28,4.281l19.588,0.555C60.676,100.289,61.775,98.443,60.433,96.1z"/>
<g>
	<path fill="none" d="M57.895,93.328h-6.119c3.306,18.474,19.443,32.5,38.869,32.5c21.814,0,39.5-17.685,39.5-39.5
		s-17.686-39.5-39.5-39.5c-17.905,0-33.02,11.917-37.865,28.25h5.115V93.328z"/>
	<path fill="#00A651" d="M90.645,37.578c-23.05,0-42.35,16.002-47.431,37.5h9.565c4.846-16.333,19.96-28.25,37.865-28.25
		c21.814,0,39.5,17.685,39.5,39.5s-17.686,39.5-39.5,39.5c-19.426,0-35.563-14.026-38.869-32.5h-9.373
		c3.396,23.606,23.696,41.75,48.242,41.75c26.924,0,48.75-21.826,48.75-48.75S117.568,37.578,90.645,37.578z"/>
	<path fill="none" d="M51.775,93.328h6.119v-18.25h-5.115c-1.059,3.566-1.635,7.34-1.635,11.25
		C51.145,88.718,51.369,91.055,51.775,93.328z"/>
	<path fill="none" d="M43.214,75.078h-7.569v18.25h6.758c-0.329-2.287-0.508-4.622-0.508-7
		C41.895,82.454,42.359,78.691,43.214,75.078z"/>
</g>
</svg>
