<?xml version="1.0" encoding="utf-8"?>
<!-- Generator: Adobe Illustrator 16.0.0, SVG Export Plug-In . SVG Version: 6.00 Build 0)  -->
<!DOCTYPE svg PUBLIC "-//W3C//DTD SVG 1.1//EN" "http://www.w3.org/Graphics/SVG/1.1/DTD/svg11.dtd">
<svg version="1.1" id="Capa_1" xmlns="http://www.w3.org/2000/svg" xmlns:xlink="http://www.w3.org/1999/xlink" x="0px" y="0px"
	 width="172.749px" height="172.958px" viewBox="0 0 172.749 172.958" enable-background="new 0 0 172.749 172.958"
	 xml:space="preserve">
<g>
	<path fill="#FFFFFF" stroke="#00427A" stroke-width="4" stroke-miterlimit="10" d="M171.171,150.927
		c0,11.089-8.988,20.079-20.08,20.079H22.251c-11.09,0-20.08-8.99-20.08-20.079V22.086c0-11.089,8.99-20.081,20.08-20.081h128.84
		c11.092,0,20.08,8.991,20.08,20.081V150.927z"/>
	<path fill="#FFFFFF" stroke="#00427A" stroke-width="4" stroke-miterlimit="10" d="M137.142,151.957
		c0,6.008,4.871,10.879,10.877,10.879l0,0c6.008,0,10.881-4.871,10.881-10.879l0,0c0-6.008-4.873-10.878-10.881-10.878l0,0
		C142.013,141.078,137.142,145.949,137.142,151.957L137.142,151.957z"/>
	<path fill="#FFFFFF" stroke="#00427A" stroke-width="4" stroke-miterlimit="10" d="M13.173,26.538
		c0,6.009,4.871,10.879,10.879,10.879l0,0c6.008,0,10.879-4.87,10.879-10.879l0,0c0-6.008-4.871-10.878-10.879-10.878l0,0
		C18.044,15.66,13.173,20.53,13.173,26.538L13.173,26.538z"/>
</g>
<path fill="#00427A" d="M107.671,106.728L90.257,89.315c-0.163-0.163-0.337-0.309-0.516-0.444l3.084-3.247
	c0.156-0.159,0.306-0.326,0.444-0.498c4.093,1.544,8.897,0.676,12.188-2.614c2.399-2.401,3.609-5.722,3.318-9.109
	c-0.032-0.384-0.286-0.716-0.647-0.846c-0.363-0.132-0.768-0.042-1.04,0.229l-5.581,5.58l-5.65-1.424l-1.602-5.828l5.579-5.579
	c0.273-0.273,0.363-0.679,0.231-1.041c-0.132-0.363-0.462-0.615-0.847-0.648c-3.389-0.292-6.709,0.917-9.11,3.318
	c-3.288,3.288-4.159,8.091-2.617,12.183c-0.167,0.142-0.334,0.292-0.497,0.454l-4.539,4.359l-8.336-8.334
	c-0.104-0.105-0.215-0.196-0.329-0.282c0.098-0.173,0.192-0.349,0.281-0.532c1.761,0.338,4.979-3.089,7.712-5.821l-7.963-7.963
	c-3.561,3.561-6.16,5.951-5.822,7.711c-0.814,0.397-1.54,0.884-2.056,1.4l-1.122,1.122c-0.729,0.729-1.168,1.636-1.324,2.582
	c-0.108,0.124-0.219,0.254-0.329,0.395l-0.419,0.525c-0.011,0.013-0.047,0.064-0.057,0.078l-0.379,0.53
	c-0.237,0.315-0.444,0.659-0.645,0.99c-0.074,0.123-0.149,0.247-0.227,0.37c-0.012,0.021-0.024,0.042-0.035,0.062l-0.168,0.318
	c-0.203,0.381-0.415,0.776-0.596,1.211l-0.028,0.069c-0.214,0.506-0.434,1.03-0.589,1.585l-0.074,0.241
	c-0.062,0.197-0.123,0.395-0.18,0.63l-0.154,0.767c-0.115,0.479-0.154,0.952-0.188,1.371l-0.022,0.274
	c-0.057,0.435-0.041,0.844-0.025,1.205c0.006,0.121,0.011,0.24,0.014,0.4c0.004,0.067,0.005,0.132,0.007,0.196
	c0.004,0.161,0.009,0.345,0.039,0.537l0.098,0.622c0.021,0.12,0.038,0.236,0.055,0.35c0.037,0.251,0.076,0.513,0.15,0.761
	l0.408,1.413c0.125,0.43,0.532,0.715,0.979,0.683c0.236-0.016,0.449-0.12,0.607-0.277c0.141-0.141,0.238-0.328,0.269-0.536
	l0.211-1.437c0.016-0.114,0.064-0.281,0.116-0.458c0.035-0.123,0.07-0.248,0.098-0.354l0.149-0.536
	c0.019-0.073,0.055-0.144,0.085-0.216c0.031-0.067,0.06-0.137,0.086-0.205c0.051-0.114,0.099-0.228,0.145-0.345
	c0.094-0.229,0.181-0.445,0.314-0.657c0.058-0.098,0.111-0.195,0.167-0.294c0.14-0.25,0.271-0.484,0.429-0.679
	c0.01-0.012,0.019-0.025,0.029-0.039l0.354-0.488c0.073-0.092,0.154-0.179,0.233-0.266c0.058-0.062,0.113-0.124,0.185-0.206
	c0.209-0.252,0.455-0.471,0.692-0.687l0.126-0.114c0.176-0.163,0.379-0.317,0.593-0.479c0.088-0.065,0.173-0.13,0.257-0.194
	c0.108-0.069,0.213-0.14,0.316-0.209c0.192-0.13,0.359-0.243,0.553-0.343l0.42-0.239l0.425-0.208
	c0.148-0.076,0.294-0.136,0.429-0.19c0.079-0.033,0.159-0.065,0.232-0.097c0.074-0.027,0.146-0.054,0.214-0.08
	c0.091-0.033,0.17-0.065,0.276-0.093l0.115-0.025c0.125,0.202,0.271,0.394,0.447,0.57l8.245,8.245l-17.603,16.905
	c-0.006,0.008-0.013,0.015-0.02,0.021c-2.19,2.19-2.547,5.397-0.355,7.588c2.19,2.191,5.194,1.63,7.384-0.561
	c0.009-0.008,0.018-0.018,0.026-0.028l15.527-16.35c0.092,0.109,0.182,0.216,0.282,0.318l17.412,17.411
	c1.95,1.952,5.115,1.952,7.067,0C109.621,111.844,109.621,108.678,107.671,106.728z M65.083,110.638
	c-0.807,0.808-2.115,0.808-2.922,0s-0.807-2.115,0-2.922c0.807-0.805,2.114-0.807,2.922,0
	C65.89,108.523,65.89,109.83,65.083,110.638z"/>
<path fill="none" stroke="#00A651" stroke-width="3" stroke-miterlimit="10" d="M125.509,75.972l-2.792-6.627
	c0,0,6.496-14.647,5.915-15.21l-8.592-8.392c-0.598-0.581-15.249,6.105-15.249,6.105l-6.761-2.733c0,0-5.971-14.846-6.792-14.846
	H79.107c-0.839,0-6.369,14.883-6.369,14.883l-6.749,2.733c0,0-14.961-6.354-15.537-5.791l-8.582,8.408
	c-0.593,0.573,6.238,14.928,6.238,14.928l-2.791,6.62c0,0-15.167,5.846-15.167,6.634v11.888c0,0.83,15.205,6.247,15.205,6.247
	l2.789,6.607c0,0-6.491,14.638-5.925,15.202l8.595,8.413c0.581,0.572,15.241-6.118,15.241-6.118l6.768,2.741
	c0,0,5.968,14.838,6.795,14.838h12.128c0.844,0,6.373-14.883,6.373-14.883l6.77-2.738c0,0,14.932,6.359,15.51,5.803l8.595-8.404
	c0.595-0.584-6.251-14.932-6.251-14.932l2.782-6.62c0,0,15.177-5.853,15.177-6.653v-11.88
	C140.702,81.373,125.509,75.972,125.509,75.972z"/>
</svg>
