<?xml version="1.0" encoding="utf-8"?>
<!-- Generator: Adobe Illustrator 16.0.0, SVG Export Plug-In . SVG Version: 6.00 Build 0)  -->
<!DOCTYPE svg PUBLIC "-//W3C//DTD SVG 1.1//EN" "http://www.w3.org/Graphics/SVG/1.1/DTD/svg11.dtd">
<svg version="1.1" id="Capa_1" xmlns="http://www.w3.org/2000/svg" xmlns:xlink="http://www.w3.org/1999/xlink" x="0px" y="0px"
	 width="172.749px" height="172.958px" viewBox="0 0 172.749 172.958" enable-background="new 0 0 172.749 172.958"
	 xml:space="preserve">
<g>
	<path fill="#FFFFFF" stroke="#00427A" stroke-width="4" stroke-miterlimit="10" d="M171.171,150.927
		c0,11.089-8.988,20.079-20.08,20.079H22.251c-11.09,0-20.08-8.99-20.08-20.079V22.086c0-11.089,8.99-20.081,20.08-20.081h128.84
		c11.092,0,20.08,8.991,20.08,20.081V150.927z"/>
	<path fill="#FFFFFF" stroke="#00427A" stroke-width="4" stroke-miterlimit="10" d="M137.142,151.957
		c0,6.008,4.871,10.879,10.877,10.879l0,0c6.008,0,10.881-4.871,10.881-10.879l0,0c0-6.008-4.873-10.878-10.881-10.878l0,0
		C142.013,141.078,137.142,145.949,137.142,151.957L137.142,151.957z"/>
	<path fill="#FFFFFF" stroke="#00427A" stroke-width="4" stroke-miterlimit="10" d="M13.173,26.538
		c0,6.009,4.871,10.879,10.879,10.879l0,0c6.008,0,10.879-4.87,10.879-10.879l0,0c0-6.008-4.871-10.878-10.879-10.878l0,0
		C18.044,15.66,13.173,20.53,13.173,26.538L13.173,26.538z"/>
</g>
<g>
	<path fill="#00A651" d="M86.58,85.577c-1.99,0-3.712,0.726-5.165,2.18c-1.454,1.454-2.182,3.176-2.182,5.165v36.733
		c0,1.991,0.728,3.712,2.182,5.165c1.453,1.455,3.174,2.182,5.165,2.183c1.989,0,3.711-0.728,5.165-2.182
		c1.454-1.453,2.182-3.175,2.182-5.165V92.922c0-1.989-0.728-3.711-2.182-5.165C90.291,86.303,88.569,85.577,86.58,85.577z"/>
	<path fill="#00427A" d="M47.122,105.26c3.08,6.16,7.413,11.325,13,15.496c1.605,1.225,3.423,1.703,5.452,1.436
		c2.027-0.267,3.634-1.224,4.82-2.868c1.224-1.608,1.692-3.416,1.405-5.424c-0.285-2.01-1.233-3.625-2.841-4.85
		c-3.748-2.832-6.647-6.295-8.693-10.39c-2.048-4.094-3.07-8.457-3.07-13.084c0-3.981,0.774-7.777,2.324-11.393
		s3.644-6.744,6.285-9.384c2.64-2.639,5.766-4.734,9.382-6.283c3.617-1.55,7.414-2.325,11.394-2.324s7.776,0.776,11.392,2.326
		c3.615,1.55,6.743,3.646,9.384,6.285c2.64,2.64,4.733,5.769,6.284,9.384c1.549,3.616,2.324,7.413,2.324,11.394
		c0,4.628-1.023,8.989-3.07,13.084c-2.047,4.093-4.945,7.556-8.696,10.388c-1.605,1.224-2.553,2.841-2.84,4.85
		c-0.286,2.008,0.182,3.816,1.406,5.423c1.187,1.645,2.782,2.602,4.792,2.869c2.01,0.268,3.837-0.21,5.481-1.435
		c5.586-4.17,9.919-9.334,13.001-15.494c3.078-6.161,4.619-12.723,4.619-19.685c0-5.969-1.168-11.671-3.502-17.104
		c-2.334-5.434-5.47-10.121-9.412-14.062c-3.94-3.94-8.628-7.08-14.062-9.413c-5.433-2.334-11.134-3.503-17.102-3.504
		c-5.969,0-11.671,1.167-17.104,3.5c-5.433,2.333-10.119,5.471-14.061,9.411c-3.94,3.941-7.077,8.627-9.411,14.061
		c-2.335,5.434-3.501,11.134-3.501,17.103C42.504,92.537,44.042,99.098,47.122,105.26z"/>
</g>
</svg>
